# 3ds Max Wavefront OBJ Exporter v0.97b - (c)2007 guruware
# File Created: 20.04.2016 21:58:55

mtllib modelFinished.mtl

#
# object BCoverSpine
#

v  -0.3769 4.5184 3.0091
v  -0.3283 4.4584 3.0091
v  -0.3283 4.4584 -2.9909
v  -0.3769 4.5184 -2.9909
v  -0.4400 4.5960 3.0091
v  -0.3913 4.5361 3.0091
v  -0.3913 4.5361 -2.9909
v  -0.4400 4.5960 -2.9909
v  0.5488 4.8448 -2.9880
v  0.7251 4.8448 -2.9880
v  0.7251 4.8448 3.0120
v  0.5488 4.8448 3.0120
v  0.5487 5.0448 -2.9880
v  0.7250 4.9198 -2.9880
v  0.5487 5.0448 3.0120
v  0.7250 4.9198 3.0120
v  -0.6850 4.9416 -2.9880
v  -0.6849 4.8441 -2.9880
v  -0.6849 4.8441 3.0120
v  -0.6850 4.9416 3.0120
v  -0.1562 4.9444 3.0120
v  0.0200 4.9445 3.0120
v  0.0199 5.0945 3.0120
v  -0.1563 5.0944 3.0120
v  0.0199 5.0945 -2.9880
v  -0.1563 5.0944 -2.9880
v  0.0200 4.9445 -2.9880
v  -0.1562 4.9444 -2.9880
v  -0.5087 4.8442 -2.9880
v  -0.3325 4.9443 -2.9880
v  -0.3325 4.9443 3.0120
v  -0.5087 4.8442 3.0120
v  -0.5088 5.0442 -2.9880
v  -0.3326 5.0943 -2.9880
v  -0.5088 5.0442 3.0120
v  -0.3326 5.0943 3.0120
v  0.1963 4.9446 3.0120
v  0.3725 4.9447 3.0120
v  0.3724 5.0947 3.0120
v  0.1962 5.0946 3.0120
v  0.3724 5.0947 -2.9880
v  0.1962 5.0946 -2.9880
v  0.3725 4.9447 -2.9880
v  0.1963 4.9446 -2.9880
v  0.6281 4.7277 3.0091
v  0.7169 4.9069 3.0091
v  0.7169 4.9069 -2.9909
v  0.6281 4.7277 -2.9909
v  0.5849 4.6406 3.0091
v  0.6192 4.7098 3.0091
v  0.6192 4.7098 -2.9909
v  0.5849 4.6406 -2.9909
v  0.5405 4.5510 3.0091
v  0.5748 4.6202 3.0091
v  0.5748 4.6202 -2.9909
v  0.5405 4.5510 -2.9909
v  0.4961 4.4614 3.0091
v  0.5304 4.5306 3.0091
v  0.5304 4.5306 -2.9909
v  0.4961 4.4614 -2.9909
v  0.4517 4.3718 3.0091
v  0.4860 4.4410 3.0091
v  0.4860 4.4410 -2.9909
v  0.4517 4.3718 -2.9909
v  0.3402 4.3562 3.0091
v  0.4118 4.3851 3.0091
v  0.4118 4.3851 -2.9909
v  0.3402 4.3562 -2.9909
v  -0.3330 4.4862 3.0091
v  -0.2589 4.4648 3.0091
v  -0.2589 4.4648 -2.9909
v  -0.3330 4.4862 -2.9909
v  -0.7064 4.9242 3.0091
v  -0.5804 4.7690 3.0091
v  -0.5804 4.7690 -2.9909
v  -0.7064 4.9242 -2.9909
v  -0.5660 4.7513 3.0091
v  -0.5173 4.6913 3.0091
v  -0.5173 4.6913 -2.9909
v  -0.5660 4.7513 -2.9909
v  -0.5030 4.6736 3.0091
v  -0.4543 4.6137 3.0091
v  -0.4543 4.6137 -2.9909
v  -0.5030 4.6736 -2.9909
# 84 vertices

vn 0.7764 0.6303 -0.0000
vn 0.0005 -1.0000 -0.0000
vn 0.0000 0.0000 -1.0000
vn 0.5781 0.8160 -0.0000
vn 0.0000 0.0000 1.0000
vn 1.0000 0.0005 -0.0000
vn -1.0000 -0.0005 -0.0000
vn -0.0005 1.0000 -0.0000
vn 0.4939 -0.8695 -0.0000
vn -0.2734 0.9619 -0.0000
vn 0.2724 0.9622 -0.0000
vn -0.4930 -0.8700 -0.0000
vn -0.5032 0.8642 -0.0000
vn -0.8960 0.4440 -0.0000
vn -0.3736 0.9276 -0.0000
vn 0.2776 0.9607 -0.0000
vn -0.1783 -0.9840 -0.0000
vn 0.1346 0.9909 -0.0000
vn -0.3151 -0.9491 -0.0000
vn 0.8960 -0.4440 -0.0000
vn -0.8456 0.5338 -0.0000
vn 0.0000 -0.0001 -1.0000
vn 0.0004 -0.0002 -1.0000
vn -0.0006 0.0002 1.0000
vn -0.7764 -0.6303 -0.0000
vn 0.0001 -0.0001 1.0000
vn 0.7526 0.6584 -0.0000
vn 0.0001 0.0001 1.0000
vn 0.0000 0.0001 1.0000
vn 0.0000 0.0002 1.0000
vn 0.0002 0.0002 1.0000
vn 0.0003 0.0000 -1.0000
vn 0.0001 0.0000 -1.0000
# 33 vertex normals

g BCoverSpine
usemtl _modelNone
s off
f 1//1 2//1 3//1 4//1 
f 5//1 6//1 7//1 8//1 
f 9//2 10//2 11//2 12//2 
f 9//3 13//3 14//3 10//3 
f 15//4 16//4 14//4 13//4 
f 12//5 11//5 16//5 15//5 
f 10//6 14//6 16//6 11//6 
f 17//7 18//7 19//7 20//7 
f 21//5 22//5 23//5 24//5 
f 24//8 23//8 25//8 26//8 
f 26//3 25//3 27//3 28//3 
f 28//2 27//2 22//2 21//2 
f 29//9 30//9 31//9 32//9 
f 33//3 34//3 30//3 29//3 
f 35//10 36//10 34//10 33//10 
f 35//5 32//5 31//5 36//5 
f 37//5 38//5 39//5 40//5 
f 40//8 39//8 41//8 42//8 
f 42//3 41//3 43//3 44//3 
f 44//2 43//2 38//2 37//2 
f 38//5 12//5 15//5 39//5 
f 39//11 15//11 13//11 41//11 
f 43//3 41//3 13//3 9//3 
f 43//12 9//12 12//12 38//12 
f 27//2 44//2 37//2 22//2 
f 25//3 42//3 44//3 27//3 
f 23//8 40//8 42//8 25//8 
f 22//5 37//5 40//5 23//5 
f 30//2 28//2 21//2 31//2 
f 34//3 26//3 28//3 30//3 
f 36//8 24//8 26//8 34//8 
f 31//5 21//5 24//5 36//5 
f 20//5 19//5 32//5 35//5 
f 20//13 35//13 33//13 17//13 
f 17//3 33//3 29//3 18//3 
f 18//2 29//2 32//2 19//2 
f 45//14 46//14 47//14 48//14 
f 49//14 50//14 51//14 52//14 
f 53//14 54//14 55//14 56//14 
f 57//14 58//14 59//14 60//14 
f 61//14 62//14 63//14 64//14 
f 65//15 66//15 67//15 68//15 
f 69//16 70//16 71//16 72//16 
f 70//17 71//17 68//17 65//17 
f 72//18 69//18 66//18 67//18 
f 66//5 69//5 70//5 65//5 
f 71//3 72//3 67//3 68//3 
f 73//1 74//1 75//1 76//1 
f 77//1 78//1 79//1 80//1 
f 81//1 82//1 83//1 84//1 
f 66//19 67//19 64//19 61//19 
f 62//20 63//20 60//20 57//20 
f 58//20 59//20 56//20 53//20 
f 54//20 55//20 52//20 49//20 
f 50//20 51//20 48//20 45//20 
f 48//21 67//21 66//21 45//21 
f 64//3 67//3 63//3 
f 63//22 67//22 60//22 
f 60//3 67//3 59//3 
f 67//23 48//23 51//23 
f 45//24 66//24 50//24 
f 55//3 67//3 52//3 
f 52//3 67//3 51//3 
f 59//3 67//3 56//3 
f 55//3 56//3 67//3 
f 6//25 7//25 4//25 1//25 
f 66//5 49//5 50//5 
f 66//26 54//26 49//26 
f 58//5 66//5 57//5 
f 57//5 66//5 62//5 
f 62//5 66//5 61//5 
f 58//5 53//5 66//5 
f 66//5 53//5 54//5 
f 82//25 83//25 8//25 5//25 
f 84//25 81//25 78//25 79//25 
f 80//25 77//25 74//25 75//25 
f 72//27 75//27 74//27 69//27 
f 2//28 69//28 1//28 
f 1//28 69//28 6//28 
f 6//28 69//28 5//28 
f 69//29 74//29 78//29 
f 81//30 69//30 78//30 
f 5//31 69//31 82//31 
f 81//28 82//28 69//28 
f 75//3 72//3 79//3 
f 72//32 84//32 79//32 
f 72//3 83//3 84//3 
f 7//33 72//33 4//33 
f 4//33 72//33 3//33 
f 7//33 8//33 72//33 
f 72//33 8//33 83//33 
# 61 polygons - 30 triangles

#
# object BPage1
#

v  1.7597 0.8313 -2.9909
v  1.8313 0.8602 -2.9909
v  1.8313 0.8602 3.0091
v  1.7597 0.8313 3.0091
v  0.3402 4.3562 -2.9909
v  0.4118 4.3851 -2.9909
v  0.4118 4.3851 3.0091
v  0.3402 4.3562 3.0091
# 8 vertices

vn 0.3735 -0.9276 -0.0000
vn 0.0000 0.0000 -1.0000
vn 0.0000 0.0000 1.0000
vn 0.9276 0.3736 -0.0000
vn -0.9276 -0.3736 -0.0000
# 5 vertex normals

g BPage1
usemtl _modelNone
s off
f 85//34 86//34 87//34 88//34 
f 89//35 90//35 86//35 85//35 
f 88//36 87//36 91//36 92//36 
f 86//37 90//37 91//37 87//37 
f 89//38 85//38 88//38 92//38 
# 5 polygons

#
# object BPage2
#

v  -1.3880 0.8356 -2.9909
v  -1.3138 0.8142 -2.9909
v  -1.3138 0.8142 3.0091
v  -1.3880 0.8356 3.0091
v  -0.3330 4.4862 -2.9909
v  -0.2589 4.4648 -2.9909
v  -0.2589 4.4648 3.0091
v  -0.3330 4.4862 3.0091
# 8 vertices

vn -0.2776 -0.9607 -0.0000
vn 0.0000 0.0000 -1.0000
vn -0.0000 -0.0000 1.0000
vn 0.9607 -0.2776 -0.0000
vn -0.9607 0.2776 -0.0000
# 5 vertex normals

g BPage2
usemtl _modelNone
s off
f 93//39 94//39 95//39 96//39 
f 97//40 98//40 94//40 93//40 
f 96//41 95//41 99//41 100//41 
f 94//42 98//42 99//42 95//42 
f 97//43 93//43 96//43 100//43 
# 5 polygons

#
# object BCoverBack
#

v  -3.3272 2.1234 -2.9909
v  -3.2785 2.0634 -2.9909
v  -3.2785 2.0634 3.0091
v  -3.3272 2.1234 3.0091
v  -0.3769 4.5184 -2.9909
v  -0.3283 4.4584 -2.9909
v  -0.3283 4.4584 3.0091
v  -0.3769 4.5184 3.0091
v  -3.3902 2.2010 -2.9909
v  -3.3416 2.1411 -2.9909
v  -3.3416 2.1411 3.0091
v  -3.3902 2.2010 3.0091
v  -0.4400 4.5960 -2.9909
v  -0.3913 4.5361 -2.9909
v  -0.3913 4.5361 3.0091
v  -0.4400 4.5960 3.0091
v  -3.8120 2.4032 -2.9909
v  -3.6859 2.2479 -2.9909
v  -3.6859 2.2479 3.0091
v  -3.8120 2.4032 3.0091
v  -0.7064 4.9242 -2.9909
v  -0.5804 4.7690 -2.9909
v  -0.5804 4.7690 3.0091
v  -0.7064 4.9242 3.0091
v  -3.5163 2.3563 -2.9909
v  -3.4676 2.2964 -2.9909
v  -3.4676 2.2964 3.0091
v  -3.5163 2.3563 3.0091
v  -0.5660 4.7513 -2.9909
v  -0.5173 4.6913 -2.9909
v  -0.5173 4.6913 3.0091
v  -0.5660 4.7513 3.0091
v  -3.4533 2.2787 -2.9909
v  -3.4046 2.2187 -2.9909
v  -3.4046 2.2187 3.0091
v  -3.4533 2.2787 3.0091
v  -0.5030 4.6736 -2.9909
v  -0.4543 4.6137 -2.9909
v  -0.4543 4.6137 3.0091
v  -0.5030 4.6736 3.0091
# 40 vertices

vn -0.7764 -0.6302 -0.0000
vn 0.0000 0.0000 -1.0000
vn 0.0000 0.0000 1.0000
vn 0.6303 -0.7764 -0.0000
vn -0.6303 0.7764 -0.0000
vn -0.7764 -0.6303 -0.0000
vn -0.0000 -0.0000 1.0000
# 7 vertex normals

g BCoverBack
usemtl _modelNone
s off
f 101//44 102//44 103//44 104//44 
f 105//45 106//45 102//45 101//45 
f 104//46 103//46 107//46 108//46 
f 102//47 106//47 107//47 103//47 
f 105//48 101//48 104//48 108//48 
f 109//49 110//49 111//49 112//49 
f 113//45 114//45 110//45 109//45 
f 112//46 111//46 115//46 116//46 
f 110//47 114//47 115//47 111//47 
f 113//48 109//48 112//48 116//48 
f 117//49 118//49 119//49 120//49 
f 121//45 122//45 118//45 117//45 
f 120//50 119//50 123//50 124//50 
f 118//47 122//47 123//47 119//47 
f 121//48 117//48 120//48 124//48 
f 125//49 126//49 127//49 128//49 
f 129//45 130//45 126//45 125//45 
f 128//50 127//50 131//50 132//50 
f 126//47 130//47 131//47 127//47 
f 129//48 125//48 128//48 132//48 
f 133//49 134//49 135//49 136//49 
f 137//45 138//45 134//45 133//45 
f 136//50 135//50 139//50 140//50 
f 134//47 138//47 139//47 135//47 
f 137//48 133//48 136//48 140//48 
# 25 polygons

#
# object BCoverFront
#

v  4.2122 2.9518 -2.9909
v  4.3010 3.1310 -2.9909
v  4.3010 3.1310 3.0091
v  4.2122 2.9518 3.0091
v  0.6281 4.7277 -2.9909
v  0.7169 4.9069 -2.9909
v  0.7169 4.9069 3.0091
v  0.6281 4.7277 3.0091
v  3.9899 2.9535 -2.9909
v  4.0242 3.0227 -2.9909
v  4.0242 3.0227 3.0091
v  3.9899 2.9535 3.0091
v  0.5849 4.6406 -2.9909
v  0.6192 4.7098 -2.9909
v  0.6192 4.7098 3.0091
v  0.5849 4.6406 3.0091
v  3.9455 2.8639 -2.9909
v  3.9798 2.9331 -2.9909
v  3.9798 2.9331 3.0091
v  3.9455 2.8639 3.0091
v  0.5405 4.5510 -2.9909
v  0.5748 4.6202 -2.9909
v  0.5748 4.6202 3.0091
v  0.5405 4.5510 3.0091
v  3.9011 2.7743 -2.9909
v  3.9354 2.8435 -2.9909
v  3.9354 2.8435 3.0091
v  3.9011 2.7743 3.0091
v  0.4961 4.4614 -2.9909
v  0.5304 4.5306 -2.9909
v  0.5304 4.5306 3.0091
v  0.4961 4.4614 3.0091
v  3.8567 2.6847 -2.9909
v  3.8910 2.7539 -2.9909
v  3.8910 2.7539 3.0091
v  3.8567 2.6847 3.0091
v  0.4517 4.3718 -2.9909
v  0.4860 4.4410 -2.9909
v  0.4860 4.4410 3.0091
v  0.4517 4.3718 3.0091
# 40 vertices

vn 0.8960 -0.4440 -0.0000
vn 0.0000 0.0000 -1.0000
vn -0.0000 -0.0000 1.0000
vn 0.4440 0.8960 -0.0000
vn -0.4440 -0.8960 -0.0000
vn 0.0000 0.0000 1.0000
# 6 vertex normals

g BCoverFront
usemtl _modelNone
s off
f 141//51 142//51 143//51 144//51 
f 145//52 146//52 142//52 141//52 
f 144//53 143//53 147//53 148//53 
f 142//54 146//54 147//54 143//54 
f 145//55 141//55 144//55 148//55 
f 149//51 150//51 151//51 152//51 
f 153//52 154//52 150//52 149//52 
f 152//56 151//56 155//56 156//56 
f 150//54 154//54 155//54 151//54 
f 153//55 149//55 152//55 156//55 
f 157//51 158//51 159//51 160//51 
f 161//52 162//52 158//52 157//52 
f 160//56 159//56 163//56 164//56 
f 158//54 162//54 163//54 159//54 
f 161//55 157//55 160//55 164//55 
f 165//51 166//51 167//51 168//51 
f 169//52 170//52 166//52 165//52 
f 168//56 167//56 171//56 172//56 
f 166//54 170//54 171//54 167//54 
f 169//55 165//55 168//55 172//55 
f 173//51 174//51 175//51 176//51 
f 177//52 178//52 174//52 173//52 
f 176//53 175//53 179//53 180//53 
f 174//54 178//54 179//54 175//54 
f 177//55 173//55 176//55 180//55 
# 25 polygons

